<svg xmlns="http://www.w3.org/2000/svg" xmlns:xlink="http://www.w3.org/1999/xlink" width="500" zoomAndPan="magnify" viewBox="0 0 375 374.999991" height="500" preserveAspectRatio="xMidYMid meet" version="1.0"><defs><g/><clipPath id="cfd6d75f64"><path d="M 54.230469 180.242188 L 320.480469 180.242188 L 320.480469 234.242188 L 54.230469 234.242188 Z M 54.230469 180.242188 " clip-rule="nonzero"/></clipPath><clipPath id="d2fd31dbc9"><path d="M 169 142 L 217 142 L 217 184.566406 L 169 184.566406 Z M 169 142 " clip-rule="nonzero"/></clipPath><clipPath id="5c49e642d1"><path d="M 148 166 L 185 166 L 185 184.566406 L 148 184.566406 Z M 148 166 " clip-rule="nonzero"/></clipPath><clipPath id="b8308942da"><path d="M 148 169 L 179 169 L 179 184.566406 L 148 184.566406 Z M 148 169 " clip-rule="nonzero"/></clipPath><clipPath id="25ac56cb1b"><path d="M 196 166 L 233 166 L 233 184.566406 L 196 184.566406 Z M 196 166 " clip-rule="nonzero"/></clipPath><clipPath id="95f23eef5d"><path d="M 195 169 L 227 169 L 227 184.566406 L 195 184.566406 Z M 195 169 " clip-rule="nonzero"/></clipPath><clipPath id="79501d7f78"><path d="M 198 135.066406 L 209 135.066406 L 209 148 L 198 148 Z M 198 135.066406 " clip-rule="nonzero"/></clipPath></defs><g clip-path="url(#cfd6d75f64)"><path fill="#00559f" d="M 54.230469 180.242188 L 320.480469 180.242188 L 320.480469 234.242188 L 54.230469 234.242188 Z M 54.230469 180.242188 " fill-opacity="1" fill-rule="nonzero"/></g><g clip-path="url(#d2fd31dbc9)"><path fill="#00559f" d="M 192.757812 153.601562 L 182.789062 161.410156 C 186.839844 163.554688 190.886719 165.707031 194.933594 167.855469 C 196.382812 168.625 197.351562 169.804688 197.824219 171.371094 C 198.296875 172.941406 198.144531 174.460938 197.363281 175.898438 L 188.554688 192.148438 L 188.125 191.90625 C 187.210938 191.394531 186.734375 190.414062 186.898438 189.378906 L 189.277344 174.136719 C 180.839844 170.511719 174.898438 169.898438 169.847656 162.386719 C 164.261719 154.0625 188.847656 142.425781 196.480469 142.433594 L 203.628906 153.265625 C 204.15625 154.058594 204.847656 154.578125 205.753906 154.859375 L 214.683594 157.625 C 215.730469 157.949219 216.417969 158.882812 216.417969 159.980469 L 216.417969 160.566406 L 199.652344 158.1875 C 198.960938 158.089844 198.386719 157.851562 197.832031 157.429688 Z M 192.757812 153.601562 " fill-opacity="1" fill-rule="evenodd"/></g><g clip-path="url(#5c49e642d1)"><path fill="#00559f" d="M 165.582031 166.558594 C 157.9375 166.558594 151.347656 171.078125 148.339844 177.589844 C 151.226562 171.996094 157.0625 168.167969 163.789062 168.167969 C 173.386719 168.167969 181.167969 175.949219 181.167969 185.546875 C 181.167969 195.140625 173.386719 202.921875 163.789062 202.921875 C 157.0625 202.921875 151.226562 199.097656 148.339844 193.5 C 151.347656 200.015625 157.9375 204.535156 165.582031 204.535156 C 176.070312 204.535156 184.574219 196.03125 184.574219 185.546875 C 184.574219 175.058594 176.070312 166.558594 165.582031 166.558594 Z M 165.582031 166.558594 " fill-opacity="1" fill-rule="evenodd"/></g><g clip-path="url(#b8308942da)"><path fill="#00559f" d="M 164.28125 169.34375 C 170.804688 169.34375 176.429688 173.199219 178.996094 178.757812 C 176.53125 173.984375 171.554688 170.71875 165.8125 170.71875 C 157.621094 170.71875 150.984375 177.359375 150.984375 185.546875 C 150.984375 193.734375 157.621094 200.371094 165.8125 200.371094 C 171.554688 200.371094 176.53125 197.109375 178.996094 192.335938 C 176.429688 197.890625 170.804688 201.746094 164.28125 201.746094 C 155.332031 201.746094 148.078125 194.492188 148.078125 185.546875 C 148.078125 176.597656 155.332031 169.34375 164.28125 169.34375 Z M 164.28125 169.34375 " fill-opacity="1" fill-rule="evenodd"/></g><g clip-path="url(#25ac56cb1b)"><path fill="#00559f" d="M 213.492188 166.558594 C 205.84375 166.558594 199.257812 171.078125 196.246094 177.589844 C 199.132812 171.996094 204.96875 168.167969 211.699219 168.167969 C 221.292969 168.167969 229.074219 175.949219 229.074219 185.546875 C 229.074219 195.140625 221.292969 202.921875 211.699219 202.921875 C 204.96875 202.921875 199.132812 199.097656 196.246094 193.5 C 199.257812 200.015625 205.84375 204.535156 213.492188 204.535156 C 223.976562 204.535156 232.480469 196.03125 232.480469 185.546875 C 232.480469 175.058594 223.976562 166.558594 213.492188 166.558594 Z M 213.492188 166.558594 " fill-opacity="1" fill-rule="evenodd"/></g><g clip-path="url(#95f23eef5d)"><path fill="#00559f" d="M 212.1875 169.34375 C 218.710938 169.34375 224.335938 173.199219 226.902344 178.757812 C 224.441406 173.984375 219.460938 170.71875 213.71875 170.71875 C 205.53125 170.71875 198.890625 177.359375 198.890625 185.546875 C 198.890625 193.734375 205.53125 200.371094 213.71875 200.371094 C 219.460938 200.371094 224.441406 197.109375 226.902344 192.335938 C 224.335938 197.890625 218.710938 201.746094 212.1875 201.746094 C 203.238281 201.746094 195.984375 194.492188 195.984375 185.546875 C 195.984375 176.597656 203.238281 169.34375 212.1875 169.34375 Z M 212.1875 169.34375 " fill-opacity="1" fill-rule="evenodd"/></g><g clip-path="url(#79501d7f78)"><path fill="#00559f" d="M 205.722656 135.953125 C 208.3125 136.800781 209.59375 139.976562 208.589844 143.046875 C 207.585938 146.117188 204.671875 147.921875 202.082031 147.074219 C 199.492188 146.226562 198.207031 143.050781 199.214844 139.980469 C 200.21875 136.910156 203.132812 135.105469 205.722656 135.953125 Z M 205.722656 135.953125 " fill-opacity="1" fill-rule="evenodd"/></g><path stroke-linecap="round" transform="matrix(0.75, 0, 0, 0.75, 118.419086, 176.710359)" fill="none" stroke-linejoin="miter" d="M 0.498511 0.500772 L 38.316222 0.500772 " stroke="#00559f" stroke-width="1" stroke-opacity="1" stroke-miterlimit="4"/><path stroke-linecap="round" transform="matrix(0.75, 0, 0, 0.75, 123.243762, 169.68891)" fill="none" stroke-linejoin="miter" d="M 0.497901 0.49812 L 37.893736 0.49812 " stroke="#00559f" stroke-width="1" stroke-opacity="1" stroke-miterlimit="4"/><g fill="#ffffff" fill-opacity="1"><g transform="translate(60.243033, 208.320368)"><g><path d="M 6.90625 0 L 0.234375 -16.09375 L 6.8125 -16.09375 L 11.34375 -4.140625 L 15.875 -16.09375 L 22.453125 -16.09375 L 15.78125 0 Z M 6.90625 0 "/></g></g></g><g fill="#ffffff" fill-opacity="1"><g transform="translate(86.363416, 208.320368)"><g><path d="M 0.453125 0 L 0.453125 -16.09375 L 17.484375 -16.09375 L 17.484375 -11.5 L 6.4375 -11.5 L 6.4375 -10 L 17.484375 -10 L 17.484375 -6.09375 L 6.4375 -6.09375 L 6.4375 -4.59375 L 17.484375 -4.59375 L 17.484375 0 Z M 0.453125 0 "/></g></g></g><g fill="#ffffff" fill-opacity="1"><g transform="translate(107.517475, 208.320368)"><g><path d="M 0.453125 0 L 0.453125 -16.09375 L 6.4375 -16.09375 L 6.4375 -5.0625 L 17.015625 -5.0625 L 17.015625 0 Z M 0.453125 0 "/></g></g></g><g fill="#ffffff" fill-opacity="1"><g transform="translate(128.211687, 208.320368)"><g><path d="M 10.34375 0.234375 C 6.800781 0.234375 4.226562 -0.445312 2.625 -1.8125 C 1.03125 -3.175781 0.234375 -5.265625 0.234375 -8.078125 C 0.234375 -10.867188 1.03125 -12.941406 2.625 -14.296875 C 4.226562 -15.648438 6.800781 -16.328125 10.34375 -16.328125 C 13.875 -16.328125 16.441406 -15.648438 18.046875 -14.296875 C 19.660156 -12.941406 20.46875 -10.867188 20.46875 -8.078125 C 20.46875 -5.285156 19.660156 -3.203125 18.046875 -1.828125 C 16.441406 -0.453125 13.875 0.234375 10.34375 0.234375 Z M 10.34375 -4.828125 C 11.53125 -4.828125 12.414062 -4.976562 13 -5.28125 C 13.59375 -5.59375 13.988281 -5.992188 14.1875 -6.484375 C 14.382812 -6.972656 14.484375 -7.503906 14.484375 -8.078125 C 14.484375 -8.640625 14.382812 -9.160156 14.1875 -9.640625 C 13.988281 -10.128906 13.59375 -10.519531 13 -10.8125 C 12.414062 -11.113281 11.53125 -11.265625 10.34375 -11.265625 C 9.164062 -11.265625 8.28125 -11.113281 7.6875 -10.8125 C 7.101562 -10.519531 6.707031 -10.128906 6.5 -9.640625 C 6.300781 -9.160156 6.203125 -8.640625 6.203125 -8.078125 C 6.203125 -7.503906 6.300781 -6.96875 6.5 -6.46875 C 6.707031 -5.976562 7.109375 -5.582031 7.703125 -5.28125 C 8.304688 -4.976562 9.1875 -4.828125 10.34375 -4.828125 Z M 10.34375 -4.828125 "/></g></g></g><g fill="#ffffff" fill-opacity="1"><g transform="translate(152.354737, 208.320368)"><g><path d="M 0.453125 0 L 0.453125 -16.09375 L 13.109375 -16.09375 C 14.335938 -16.09375 15.410156 -15.828125 16.328125 -15.296875 C 17.242188 -14.773438 17.960938 -14.050781 18.484375 -13.125 C 19.015625 -12.195312 19.28125 -11.132812 19.28125 -9.9375 C 19.28125 -8.738281 19.015625 -7.675781 18.484375 -6.75 C 17.960938 -5.820312 17.242188 -5.09375 16.328125 -4.5625 C 15.410156 -4.03125 14.335938 -3.765625 13.109375 -3.765625 L 6.4375 -3.765625 L 6.4375 0 Z M 6.4375 -8.828125 L 11.953125 -8.828125 C 12.160156 -8.828125 12.363281 -8.84375 12.5625 -8.875 C 12.769531 -8.90625 12.941406 -9 13.078125 -9.15625 C 13.222656 -9.3125 13.296875 -9.570312 13.296875 -9.9375 C 13.296875 -10.300781 13.222656 -10.5625 13.078125 -10.71875 C 12.941406 -10.875 12.769531 -10.96875 12.5625 -11 C 12.363281 -11.03125 12.160156 -11.046875 11.953125 -11.046875 L 6.4375 -11.046875 Z M 6.4375 -8.828125 "/></g></g></g><g fill="#ffffff" fill-opacity="1"><g transform="translate(175.3022, 208.320368)"><g><path d="M 0.453125 0 L 0.453125 -16.09375 L 6.4375 -16.09375 L 6.4375 -5.0625 L 17.015625 -5.0625 L 17.015625 0 Z M 0.453125 0 "/></g></g></g><g fill="#ffffff" fill-opacity="1"><g transform="translate(195.996412, 208.320368)"><g><path d="M 0.234375 0 L 6.90625 -16.09375 L 15.78125 -16.09375 L 22.453125 0 L 15.875 0 L 14.765625 -2.890625 L 7.90625 -2.890625 L 6.8125 0 Z M 9.46875 -7.03125 L 13.203125 -7.03125 L 11.34375 -11.953125 Z M 9.46875 -7.03125 "/></g></g></g><g fill="#ffffff" fill-opacity="1"><g transform="translate(222.116794, 208.320368)"><g><path d="M 0.453125 0 L 0.453125 -16.09375 L 8.28125 -16.09375 L 15.21875 -6.59375 L 15.21875 -16.09375 L 21.203125 -16.09375 L 21.203125 0 L 13.390625 0 L 6.4375 -9.5 L 6.4375 0 Z M 0.453125 0 "/></g></g></g><g fill="#ffffff" fill-opacity="1"><g transform="translate(247.225519, 208.320368)"><g><path d="M 0.453125 0 L 0.453125 -16.09375 L 17.484375 -16.09375 L 17.484375 -11.5 L 6.4375 -11.5 L 6.4375 -10 L 17.484375 -10 L 17.484375 -6.09375 L 6.4375 -6.09375 L 6.4375 -4.59375 L 17.484375 -4.59375 L 17.484375 0 Z M 0.453125 0 "/></g></g></g><g fill="#ffffff" fill-opacity="1"><g transform="translate(268.379578, 208.320368)"><g><path d="M 7.125 0 L 7.125 -11.046875 L 0.234375 -11.046875 L 0.234375 -16.09375 L 20.015625 -16.09375 L 20.015625 -11.046875 L 13.109375 -11.046875 L 13.109375 0 Z M 7.125 0 "/></g></g></g><g fill="#ffffff" fill-opacity="1"><g transform="translate(292.062781, 208.320368)"><g><path d="M 0.234375 0 L 6.90625 -16.09375 L 15.78125 -16.09375 L 22.453125 0 L 15.875 0 L 14.765625 -2.890625 L 7.90625 -2.890625 L 6.8125 0 Z M 9.46875 -7.03125 L 13.203125 -7.03125 L 11.34375 -11.953125 Z M 9.46875 -7.03125 "/></g></g></g><g fill="#ffffff" fill-opacity="1"><g transform="translate(70.774442, 224.870376)"><g><path d="M 0.484375 0 L 0.484375 -7 L 6.65625 -7 C 7.1875 -7 7.601562 -6.914062 7.90625 -6.75 C 8.207031 -6.582031 8.421875 -6.359375 8.546875 -6.078125 C 8.671875 -5.796875 8.734375 -5.488281 8.734375 -5.15625 C 8.734375 -4.894531 8.6875 -4.644531 8.59375 -4.40625 C 8.507812 -4.175781 8.375 -3.960938 8.1875 -3.765625 C 8.5 -3.597656 8.738281 -3.367188 8.90625 -3.078125 C 9.082031 -2.796875 9.171875 -2.445312 9.171875 -2.03125 C 9.171875 -1.632812 9.085938 -1.28125 8.921875 -0.96875 C 8.765625 -0.664062 8.519531 -0.425781 8.1875 -0.25 C 7.851562 -0.0820312 7.421875 0 6.890625 0 Z M 2.0625 -4.1875 L 6.15625 -4.1875 C 6.34375 -4.1875 6.507812 -4.195312 6.65625 -4.21875 C 6.800781 -4.238281 6.921875 -4.304688 7.015625 -4.421875 C 7.109375 -4.535156 7.15625 -4.722656 7.15625 -4.984375 C 7.15625 -5.265625 7.109375 -5.457031 7.015625 -5.5625 C 6.921875 -5.675781 6.800781 -5.742188 6.65625 -5.765625 C 6.507812 -5.796875 6.34375 -5.8125 6.15625 -5.8125 L 2.0625 -5.8125 Z M 2.0625 -1.25 L 6.5625 -1.25 C 6.75 -1.25 6.921875 -1.257812 7.078125 -1.28125 C 7.234375 -1.300781 7.359375 -1.367188 7.453125 -1.484375 C 7.546875 -1.609375 7.59375 -1.8125 7.59375 -2.09375 C 7.59375 -2.375 7.546875 -2.570312 7.453125 -2.6875 C 7.359375 -2.800781 7.234375 -2.867188 7.078125 -2.890625 C 6.921875 -2.921875 6.75 -2.9375 6.5625 -2.9375 L 2.0625 -2.9375 Z M 2.0625 -1.25 "/></g></g></g><g fill="#ffffff" fill-opacity="1"><g transform="translate(81.380669, 224.870376)"><g><path d="M 0.484375 0 L 0.484375 -7 L 2.0625 -7 L 2.0625 0 Z M 0.484375 0 "/></g></g></g><g fill="#ffffff" fill-opacity="1"><g transform="translate(84.989659, 224.870376)"><g><path d="M 4.796875 0.09375 C 3.765625 0.09375 2.925781 -0.046875 2.28125 -0.328125 C 1.632812 -0.609375 1.15625 -1.019531 0.84375 -1.5625 C 0.539062 -2.101562 0.390625 -2.753906 0.390625 -3.515625 C 0.390625 -4.273438 0.539062 -4.921875 0.84375 -5.453125 C 1.15625 -5.992188 1.632812 -6.398438 2.28125 -6.671875 C 2.925781 -6.953125 3.765625 -7.09375 4.796875 -7.09375 C 6.179688 -7.09375 7.226562 -6.828125 7.9375 -6.296875 C 8.65625 -5.773438 9.0625 -5.03125 9.15625 -4.0625 L 7.5625 -4.0625 C 7.476562 -4.675781 7.195312 -5.113281 6.71875 -5.375 C 6.238281 -5.632812 5.597656 -5.765625 4.796875 -5.765625 C 3.847656 -5.765625 3.140625 -5.585938 2.671875 -5.234375 C 2.203125 -4.890625 1.96875 -4.316406 1.96875 -3.515625 C 1.96875 -2.703125 2.203125 -2.117188 2.671875 -1.765625 C 3.140625 -1.410156 3.847656 -1.234375 4.796875 -1.234375 C 5.585938 -1.234375 6.222656 -1.363281 6.703125 -1.625 C 7.191406 -1.882812 7.476562 -2.328125 7.5625 -2.953125 L 9.15625 -2.953125 C 9.0625 -1.972656 8.65625 -1.21875 7.9375 -0.6875 C 7.226562 -0.164062 6.179688 0.09375 4.796875 0.09375 Z M 4.796875 0.09375 "/></g></g></g><g fill="#ffffff" fill-opacity="1"><g transform="translate(95.585895, 224.870376)"><g><path d="M 4.453125 0 L 4.453125 -2.296875 L 0.390625 -7 L 2.34375 -7 L 5.25 -3.640625 L 8.171875 -7 L 10.109375 -7 L 6.046875 -2.296875 L 6.046875 0 Z M 4.453125 0 "/></g></g></g><g fill="#ffffff" fill-opacity="1"><g transform="translate(107.131752, 224.870376)"><g><path d="M 4.796875 0.09375 C 3.765625 0.09375 2.925781 -0.046875 2.28125 -0.328125 C 1.632812 -0.609375 1.15625 -1.019531 0.84375 -1.5625 C 0.539062 -2.101562 0.390625 -2.753906 0.390625 -3.515625 C 0.390625 -4.273438 0.539062 -4.921875 0.84375 -5.453125 C 1.15625 -5.992188 1.632812 -6.398438 2.28125 -6.671875 C 2.925781 -6.953125 3.765625 -7.09375 4.796875 -7.09375 C 6.179688 -7.09375 7.226562 -6.828125 7.9375 -6.296875 C 8.65625 -5.773438 9.0625 -5.03125 9.15625 -4.0625 L 7.5625 -4.0625 C 7.476562 -4.675781 7.195312 -5.113281 6.71875 -5.375 C 6.238281 -5.632812 5.597656 -5.765625 4.796875 -5.765625 C 3.847656 -5.765625 3.140625 -5.585938 2.671875 -5.234375 C 2.203125 -4.890625 1.96875 -4.316406 1.96875 -3.515625 C 1.96875 -2.703125 2.203125 -2.117188 2.671875 -1.765625 C 3.140625 -1.410156 3.847656 -1.234375 4.796875 -1.234375 C 5.585938 -1.234375 6.222656 -1.363281 6.703125 -1.625 C 7.191406 -1.882812 7.476562 -2.328125 7.5625 -2.953125 L 9.15625 -2.953125 C 9.0625 -1.972656 8.65625 -1.21875 7.9375 -0.6875 C 7.226562 -0.164062 6.179688 0.09375 4.796875 0.09375 Z M 4.796875 0.09375 "/></g></g></g><g fill="#ffffff" fill-opacity="1"><g transform="translate(117.727991, 224.870376)"><g><path d="M 0.484375 0 L 0.484375 -7 L 2.0625 -7 L 2.0625 -1.328125 L 7.6875 -1.328125 L 7.6875 0 Z M 0.484375 0 "/></g></g></g><g fill="#ffffff" fill-opacity="1"><g transform="translate(126.854808, 224.870376)"><g><path d="M 0.484375 0 L 0.484375 -7 L 7.890625 -7 L 7.890625 -5.734375 L 2.0625 -5.734375 L 2.0625 -4.09375 L 7.890625 -4.09375 L 7.890625 -2.90625 L 2.0625 -2.90625 L 2.0625 -1.265625 L 7.890625 -1.265625 L 7.890625 0 Z M 0.484375 0 "/></g></g></g><g fill="#ffffff" fill-opacity="1"><g transform="translate(136.181542, 224.870376)"><g/></g></g><g fill="#ffffff" fill-opacity="1"><g transform="translate(141.959681, 224.870376)"><g><path d="M 5.015625 0.09375 C 4.054688 0.09375 3.226562 0.0234375 2.53125 -0.109375 C 1.84375 -0.242188 1.3125 -0.492188 0.9375 -0.859375 C 0.570312 -1.222656 0.390625 -1.738281 0.390625 -2.40625 L 1.96875 -2.40625 C 1.96875 -2.125 2.054688 -1.890625 2.234375 -1.703125 C 2.421875 -1.523438 2.742188 -1.390625 3.203125 -1.296875 C 3.660156 -1.210938 4.296875 -1.171875 5.109375 -1.171875 C 5.765625 -1.171875 6.285156 -1.195312 6.671875 -1.25 C 7.054688 -1.3125 7.332031 -1.40625 7.5 -1.53125 C 7.664062 -1.664062 7.75 -1.835938 7.75 -2.046875 C 7.75 -2.210938 7.710938 -2.34375 7.640625 -2.4375 C 7.566406 -2.539062 7.425781 -2.625 7.21875 -2.6875 C 7.007812 -2.75 6.71875 -2.796875 6.34375 -2.828125 C 5.96875 -2.867188 5.472656 -2.90625 4.859375 -2.9375 C 3.859375 -2.988281 3.046875 -3.082031 2.421875 -3.21875 C 1.804688 -3.363281 1.351562 -3.585938 1.0625 -3.890625 C 0.78125 -4.191406 0.640625 -4.601562 0.640625 -5.125 C 0.640625 -5.632812 0.804688 -6.03125 1.140625 -6.3125 C 1.484375 -6.601562 1.960938 -6.804688 2.578125 -6.921875 C 3.203125 -7.035156 3.941406 -7.09375 4.796875 -7.09375 C 5.671875 -7.09375 6.425781 -7.015625 7.0625 -6.859375 C 7.695312 -6.703125 8.179688 -6.445312 8.515625 -6.09375 C 8.859375 -5.75 9.03125 -5.289062 9.03125 -4.71875 L 7.453125 -4.71875 C 7.453125 -5.007812 7.351562 -5.234375 7.15625 -5.390625 C 6.96875 -5.554688 6.664062 -5.671875 6.25 -5.734375 C 5.832031 -5.796875 5.28125 -5.828125 4.59375 -5.828125 C 3.96875 -5.828125 3.476562 -5.800781 3.125 -5.75 C 2.78125 -5.707031 2.539062 -5.625 2.40625 -5.5 C 2.28125 -5.382812 2.21875 -5.234375 2.21875 -5.046875 C 2.21875 -4.890625 2.253906 -4.757812 2.328125 -4.65625 C 2.398438 -4.5625 2.53125 -4.484375 2.71875 -4.421875 C 2.914062 -4.359375 3.1875 -4.304688 3.53125 -4.265625 C 3.875 -4.222656 4.316406 -4.1875 4.859375 -4.15625 C 5.554688 -4.113281 6.175781 -4.066406 6.71875 -4.015625 C 7.269531 -3.960938 7.738281 -3.867188 8.125 -3.734375 C 8.507812 -3.597656 8.804688 -3.398438 9.015625 -3.140625 C 9.222656 -2.890625 9.328125 -2.539062 9.328125 -2.09375 C 9.328125 -1.632812 9.21875 -1.257812 9 -0.96875 C 8.789062 -0.675781 8.492188 -0.453125 8.109375 -0.296875 C 7.722656 -0.140625 7.265625 -0.0351562 6.734375 0.015625 C 6.210938 0.0664062 5.640625 0.09375 5.015625 0.09375 Z M 5.015625 0.09375 "/></g></g></g><g fill="#ffffff" fill-opacity="1"><g transform="translate(152.725852, 224.870376)"><g><path d="M 0.484375 0 L 0.484375 -7 L 2.0625 -7 L 2.0625 -4.15625 L 8.203125 -4.15625 L 8.203125 -7 L 9.796875 -7 L 9.796875 0 L 8.203125 0 L 8.203125 -2.84375 L 2.0625 -2.84375 L 2.0625 0 Z M 0.484375 0 "/></g></g></g><g fill="#ffffff" fill-opacity="1"><g transform="translate(164.0518, 224.870376)"><g><path d="M 4.796875 0.09375 C 3.765625 0.09375 2.925781 -0.046875 2.28125 -0.328125 C 1.632812 -0.609375 1.15625 -1.019531 0.84375 -1.5625 C 0.539062 -2.101562 0.390625 -2.753906 0.390625 -3.515625 C 0.390625 -4.273438 0.539062 -4.921875 0.84375 -5.453125 C 1.15625 -5.992188 1.632812 -6.398438 2.28125 -6.671875 C 2.925781 -6.953125 3.765625 -7.09375 4.796875 -7.09375 C 5.816406 -7.09375 6.648438 -6.953125 7.296875 -6.671875 C 7.941406 -6.390625 8.414062 -5.984375 8.71875 -5.453125 C 9.03125 -4.921875 9.1875 -4.273438 9.1875 -3.515625 C 9.1875 -2.753906 9.03125 -2.101562 8.71875 -1.5625 C 8.414062 -1.03125 7.941406 -0.617188 7.296875 -0.328125 C 6.648438 -0.046875 5.816406 0.09375 4.796875 0.09375 Z M 4.796875 -1.234375 C 5.773438 -1.234375 6.488281 -1.410156 6.9375 -1.765625 C 7.382812 -2.117188 7.609375 -2.703125 7.609375 -3.515625 C 7.609375 -4.304688 7.382812 -4.878906 6.9375 -5.234375 C 6.5 -5.585938 5.785156 -5.765625 4.796875 -5.765625 C 3.804688 -5.765625 3.085938 -5.585938 2.640625 -5.234375 C 2.191406 -4.890625 1.96875 -4.316406 1.96875 -3.515625 C 1.96875 -2.703125 2.191406 -2.117188 2.640625 -1.765625 C 3.085938 -1.410156 3.804688 -1.234375 4.796875 -1.234375 Z M 4.796875 -1.234375 "/></g></g></g><g fill="#ffffff" fill-opacity="1"><g transform="translate(174.678022, 224.870376)"><g><path d="M 0.484375 0 L 0.484375 -7 L 5.984375 -7 C 6.523438 -7 6.992188 -6.894531 7.390625 -6.6875 C 7.785156 -6.488281 8.097656 -6.195312 8.328125 -5.8125 C 8.554688 -5.4375 8.671875 -4.988281 8.671875 -4.46875 C 8.671875 -3.945312 8.554688 -3.492188 8.328125 -3.109375 C 8.097656 -2.734375 7.785156 -2.441406 7.390625 -2.234375 C 6.992188 -2.035156 6.523438 -1.9375 5.984375 -1.9375 L 2.0625 -1.9375 L 2.0625 0 Z M 2.0625 -3.265625 L 5.484375 -3.265625 C 5.640625 -3.265625 5.804688 -3.269531 5.984375 -3.28125 C 6.171875 -3.289062 6.347656 -3.332031 6.515625 -3.40625 C 6.679688 -3.476562 6.816406 -3.597656 6.921875 -3.765625 C 7.035156 -3.929688 7.09375 -4.164062 7.09375 -4.46875 C 7.09375 -4.769531 7.035156 -5 6.921875 -5.15625 C 6.816406 -5.320312 6.679688 -5.441406 6.515625 -5.515625 C 6.347656 -5.585938 6.171875 -5.628906 5.984375 -5.640625 C 5.804688 -5.660156 5.640625 -5.671875 5.484375 -5.671875 L 2.0625 -5.671875 Z M 2.0625 -3.265625 "/></g></g></g><g fill="#ffffff" fill-opacity="1"><g transform="translate(184.784448, 224.870376)"><g/></g></g><g fill="#ffffff" fill-opacity="1"><g transform="translate(190.562581, 224.870376)"><g><path d="M 0.390625 0 L 4.203125 -7 L 6.234375 -7 L 10.046875 0 L 8.296875 0 L 7.453125 -1.546875 L 2.984375 -1.546875 L 2.140625 0 Z M 3.59375 -2.765625 L 6.84375 -2.765625 L 5.21875 -5.703125 Z M 3.59375 -2.765625 "/></g></g></g><g fill="#ffffff" fill-opacity="1"><g transform="translate(202.048454, 224.870376)"><g><path d="M 0.484375 0 L 0.484375 -7 L 2.6875 -7 L 7.9375 -1.625 L 7.9375 -7 L 9.515625 -7 L 9.515625 0 L 7.328125 0 L 2.0625 -5.375 L 2.0625 0 Z M 0.484375 0 "/></g></g></g><g fill="#ffffff" fill-opacity="1"><g transform="translate(213.094508, 224.870376)"><g><path d="M 0.484375 0 L 0.484375 -7 L 5.546875 -7 C 6.003906 -7 6.4375 -6.925781 6.84375 -6.78125 C 7.257812 -6.632812 7.625 -6.414062 7.9375 -6.125 C 8.257812 -5.84375 8.507812 -5.484375 8.6875 -5.046875 C 8.875 -4.609375 8.96875 -4.09375 8.96875 -3.5 C 8.96875 -2.90625 8.875 -2.390625 8.6875 -1.953125 C 8.507812 -1.515625 8.257812 -1.148438 7.9375 -0.859375 C 7.625 -0.578125 7.257812 -0.363281 6.84375 -0.21875 C 6.4375 -0.0703125 6.003906 0 5.546875 0 Z M 2.0625 -1.328125 L 4.890625 -1.328125 C 5.421875 -1.328125 5.867188 -1.378906 6.234375 -1.484375 C 6.609375 -1.597656 6.894531 -1.8125 7.09375 -2.125 C 7.289062 -2.4375 7.390625 -2.894531 7.390625 -3.5 C 7.390625 -4.101562 7.289062 -4.5625 7.09375 -4.875 C 6.894531 -5.1875 6.609375 -5.394531 6.234375 -5.5 C 5.867188 -5.613281 5.421875 -5.671875 4.890625 -5.671875 L 2.0625 -5.671875 Z M 2.0625 -1.328125 "/></g></g></g><g fill="#ffffff" fill-opacity="1"><g transform="translate(223.500815, 224.870376)"><g/></g></g><g fill="#ffffff" fill-opacity="1"><g transform="translate(229.278948, 224.870376)"><g><path d="M 5.015625 0.09375 C 4.054688 0.09375 3.226562 0.0234375 2.53125 -0.109375 C 1.84375 -0.242188 1.3125 -0.492188 0.9375 -0.859375 C 0.570312 -1.222656 0.390625 -1.738281 0.390625 -2.40625 L 1.96875 -2.40625 C 1.96875 -2.125 2.054688 -1.890625 2.234375 -1.703125 C 2.421875 -1.523438 2.742188 -1.390625 3.203125 -1.296875 C 3.660156 -1.210938 4.296875 -1.171875 5.109375 -1.171875 C 5.765625 -1.171875 6.285156 -1.195312 6.671875 -1.25 C 7.054688 -1.3125 7.332031 -1.40625 7.5 -1.53125 C 7.664062 -1.664062 7.75 -1.835938 7.75 -2.046875 C 7.75 -2.210938 7.710938 -2.34375 7.640625 -2.4375 C 7.566406 -2.539062 7.425781 -2.625 7.21875 -2.6875 C 7.007812 -2.75 6.71875 -2.796875 6.34375 -2.828125 C 5.96875 -2.867188 5.472656 -2.90625 4.859375 -2.9375 C 3.859375 -2.988281 3.046875 -3.082031 2.421875 -3.21875 C 1.804688 -3.363281 1.351562 -3.585938 1.0625 -3.890625 C 0.78125 -4.191406 0.640625 -4.601562 0.640625 -5.125 C 0.640625 -5.632812 0.804688 -6.03125 1.140625 -6.3125 C 1.484375 -6.601562 1.960938 -6.804688 2.578125 -6.921875 C 3.203125 -7.035156 3.941406 -7.09375 4.796875 -7.09375 C 5.671875 -7.09375 6.425781 -7.015625 7.0625 -6.859375 C 7.695312 -6.703125 8.179688 -6.445312 8.515625 -6.09375 C 8.859375 -5.75 9.03125 -5.289062 9.03125 -4.71875 L 7.453125 -4.71875 C 7.453125 -5.007812 7.351562 -5.234375 7.15625 -5.390625 C 6.96875 -5.554688 6.664062 -5.671875 6.25 -5.734375 C 5.832031 -5.796875 5.28125 -5.828125 4.59375 -5.828125 C 3.96875 -5.828125 3.476562 -5.800781 3.125 -5.75 C 2.78125 -5.707031 2.539062 -5.625 2.40625 -5.5 C 2.28125 -5.382812 2.21875 -5.234375 2.21875 -5.046875 C 2.21875 -4.890625 2.253906 -4.757812 2.328125 -4.65625 C 2.398438 -4.5625 2.53125 -4.484375 2.71875 -4.421875 C 2.914062 -4.359375 3.1875 -4.304688 3.53125 -4.265625 C 3.875 -4.222656 4.316406 -4.1875 4.859375 -4.15625 C 5.554688 -4.113281 6.175781 -4.066406 6.71875 -4.015625 C 7.269531 -3.960938 7.738281 -3.867188 8.125 -3.734375 C 8.507812 -3.597656 8.804688 -3.398438 9.015625 -3.140625 C 9.222656 -2.890625 9.328125 -2.539062 9.328125 -2.09375 C 9.328125 -1.632812 9.21875 -1.257812 9 -0.96875 C 8.789062 -0.675781 8.492188 -0.453125 8.109375 -0.296875 C 7.722656 -0.140625 7.265625 -0.0351562 6.734375 0.015625 C 6.210938 0.0664062 5.640625 0.09375 5.015625 0.09375 Z M 5.015625 0.09375 "/></g></g></g><g fill="#ffffff" fill-opacity="1"><g transform="translate(240.045114, 224.870376)"><g><path d="M 0.484375 0 L 0.484375 -7 L 7.890625 -7 L 7.890625 -5.734375 L 2.0625 -5.734375 L 2.0625 -4.09375 L 7.890625 -4.09375 L 7.890625 -2.90625 L 2.0625 -2.90625 L 2.0625 -1.265625 L 7.890625 -1.265625 L 7.890625 0 Z M 0.484375 0 "/></g></g></g><g fill="#ffffff" fill-opacity="1"><g transform="translate(249.371842, 224.870376)"><g><path d="M 0.484375 0 L 0.484375 -7 L 5.984375 -7 C 6.523438 -7 6.992188 -6.894531 7.390625 -6.6875 C 7.785156 -6.488281 8.097656 -6.195312 8.328125 -5.8125 C 8.554688 -5.4375 8.671875 -4.988281 8.671875 -4.46875 C 8.671875 -3.882812 8.523438 -3.390625 8.234375 -2.984375 C 7.953125 -2.578125 7.5625 -2.289062 7.0625 -2.125 L 8.375 0 L 6.515625 0 L 5.34375 -1.9375 L 2.0625 -1.9375 L 2.0625 0 Z M 2.0625 -3.265625 L 5.484375 -3.265625 C 5.640625 -3.265625 5.804688 -3.269531 5.984375 -3.28125 C 6.171875 -3.289062 6.347656 -3.332031 6.515625 -3.40625 C 6.679688 -3.476562 6.816406 -3.597656 6.921875 -3.765625 C 7.035156 -3.929688 7.09375 -4.164062 7.09375 -4.46875 C 7.09375 -4.769531 7.035156 -5 6.921875 -5.15625 C 6.816406 -5.320312 6.679688 -5.441406 6.515625 -5.515625 C 6.347656 -5.585938 6.171875 -5.628906 5.984375 -5.640625 C 5.804688 -5.660156 5.640625 -5.671875 5.484375 -5.671875 L 2.0625 -5.671875 Z M 2.0625 -3.265625 "/></g></g></g><g fill="#ffffff" fill-opacity="1"><g transform="translate(259.478268, 224.870376)"><g><path d="M 4.1875 0 L 0.390625 -7 L 2.1875 -7 L 5.21875 -1.296875 L 8.265625 -7 L 10.046875 -7 L 6.265625 0 Z M 4.1875 0 "/></g></g></g><g fill="#ffffff" fill-opacity="1"><g transform="translate(270.964141, 224.870376)"><g><path d="M 0.484375 0 L 0.484375 -7 L 2.0625 -7 L 2.0625 0 Z M 0.484375 0 "/></g></g></g><g fill="#ffffff" fill-opacity="1"><g transform="translate(274.573127, 224.870376)"><g><path d="M 4.796875 0.09375 C 3.765625 0.09375 2.925781 -0.046875 2.28125 -0.328125 C 1.632812 -0.609375 1.15625 -1.019531 0.84375 -1.5625 C 0.539062 -2.101562 0.390625 -2.753906 0.390625 -3.515625 C 0.390625 -4.273438 0.539062 -4.921875 0.84375 -5.453125 C 1.15625 -5.992188 1.632812 -6.398438 2.28125 -6.671875 C 2.925781 -6.953125 3.765625 -7.09375 4.796875 -7.09375 C 6.179688 -7.09375 7.226562 -6.828125 7.9375 -6.296875 C 8.65625 -5.773438 9.0625 -5.03125 9.15625 -4.0625 L 7.5625 -4.0625 C 7.476562 -4.675781 7.195312 -5.113281 6.71875 -5.375 C 6.238281 -5.632812 5.597656 -5.765625 4.796875 -5.765625 C 3.847656 -5.765625 3.140625 -5.585938 2.671875 -5.234375 C 2.203125 -4.890625 1.96875 -4.316406 1.96875 -3.515625 C 1.96875 -2.703125 2.203125 -2.117188 2.671875 -1.765625 C 3.140625 -1.410156 3.847656 -1.234375 4.796875 -1.234375 C 5.585938 -1.234375 6.222656 -1.363281 6.703125 -1.625 C 7.191406 -1.882812 7.476562 -2.328125 7.5625 -2.953125 L 9.15625 -2.953125 C 9.0625 -1.972656 8.65625 -1.21875 7.9375 -0.6875 C 7.226562 -0.164062 6.179688 0.09375 4.796875 0.09375 Z M 4.796875 0.09375 "/></g></g></g><g fill="#ffffff" fill-opacity="1"><g transform="translate(285.169371, 224.870376)"><g><path d="M 0.484375 0 L 0.484375 -7 L 7.890625 -7 L 7.890625 -5.734375 L 2.0625 -5.734375 L 2.0625 -4.09375 L 7.890625 -4.09375 L 7.890625 -2.90625 L 2.0625 -2.90625 L 2.0625 -1.265625 L 7.890625 -1.265625 L 7.890625 0 Z M 0.484375 0 "/></g></g></g><g fill="#ffffff" fill-opacity="1"><g transform="translate(294.496099, 224.870376)"><g><path d="M 5.015625 0.09375 C 4.054688 0.09375 3.226562 0.0234375 2.53125 -0.109375 C 1.84375 -0.242188 1.3125 -0.492188 0.9375 -0.859375 C 0.570312 -1.222656 0.390625 -1.738281 0.390625 -2.40625 L 1.96875 -2.40625 C 1.96875 -2.125 2.054688 -1.890625 2.234375 -1.703125 C 2.421875 -1.523438 2.742188 -1.390625 3.203125 -1.296875 C 3.660156 -1.210938 4.296875 -1.171875 5.109375 -1.171875 C 5.765625 -1.171875 6.285156 -1.195312 6.671875 -1.25 C 7.054688 -1.3125 7.332031 -1.40625 7.5 -1.53125 C 7.664062 -1.664062 7.75 -1.835938 7.75 -2.046875 C 7.75 -2.210938 7.710938 -2.34375 7.640625 -2.4375 C 7.566406 -2.539062 7.425781 -2.625 7.21875 -2.6875 C 7.007812 -2.75 6.71875 -2.796875 6.34375 -2.828125 C 5.96875 -2.867188 5.472656 -2.90625 4.859375 -2.9375 C 3.859375 -2.988281 3.046875 -3.082031 2.421875 -3.21875 C 1.804688 -3.363281 1.351562 -3.585938 1.0625 -3.890625 C 0.78125 -4.191406 0.640625 -4.601562 0.640625 -5.125 C 0.640625 -5.632812 0.804688 -6.03125 1.140625 -6.3125 C 1.484375 -6.601562 1.960938 -6.804688 2.578125 -6.921875 C 3.203125 -7.035156 3.941406 -7.09375 4.796875 -7.09375 C 5.671875 -7.09375 6.425781 -7.015625 7.0625 -6.859375 C 7.695312 -6.703125 8.179688 -6.445312 8.515625 -6.09375 C 8.859375 -5.75 9.03125 -5.289062 9.03125 -4.71875 L 7.453125 -4.71875 C 7.453125 -5.007812 7.351562 -5.234375 7.15625 -5.390625 C 6.96875 -5.554688 6.664062 -5.671875 6.25 -5.734375 C 5.832031 -5.796875 5.28125 -5.828125 4.59375 -5.828125 C 3.96875 -5.828125 3.476562 -5.800781 3.125 -5.75 C 2.78125 -5.707031 2.539062 -5.625 2.40625 -5.5 C 2.28125 -5.382812 2.21875 -5.234375 2.21875 -5.046875 C 2.21875 -4.890625 2.253906 -4.757812 2.328125 -4.65625 C 2.398438 -4.5625 2.53125 -4.484375 2.71875 -4.421875 C 2.914062 -4.359375 3.1875 -4.304688 3.53125 -4.265625 C 3.875 -4.222656 4.316406 -4.1875 4.859375 -4.15625 C 5.554688 -4.113281 6.175781 -4.066406 6.71875 -4.015625 C 7.269531 -3.960938 7.738281 -3.867188 8.125 -3.734375 C 8.507812 -3.597656 8.804688 -3.398438 9.015625 -3.140625 C 9.222656 -2.890625 9.328125 -2.539062 9.328125 -2.09375 C 9.328125 -1.632812 9.21875 -1.257812 9 -0.96875 C 8.789062 -0.675781 8.492188 -0.453125 8.109375 -0.296875 C 7.722656 -0.140625 7.265625 -0.0351562 6.734375 0.015625 C 6.210938 0.0664062 5.640625 0.09375 5.015625 0.09375 Z M 5.015625 0.09375 "/></g></g></g></svg>